{"title":"La Liga G35 21.04.2012 FC Barcelona - Real Madrid HDTV 1080i","uid":7281118,"size":7888755044,"categoryP":"video","categoryS":"other","magnet":"?xt=urn:btih:cdd68d18bff9cd5108f2ab1b19463b46f064b50d&amp;dn=La+Liga+G35+21.04.2012+FC+Barcelona+-+Real+Madrid+HDTV+1080i&amp;tr=udp%3A%2F%2Ftracker.openbittorrent.com%3A80&amp;tr=udp%3A%2F%2Fopen.demonii.com%3A1337&amp;tr=udp%3A%2F%2Ftracker.coppersurfer.tk%3A6969&amp;tr=udp%3A%2F%2Fexodus.desync.com%3A6969","seeders":0,"leechers":1,"uploader":null,"files":1,"time":1337437156,"description":"Format                           : MPEG-TS\nFile size                        : 7.35 GiB\nDuration                         : 1h 42mn\nOverall bit rate                 : 10.3 Mbps\n\nVideo\nID                               : 163 (0xA3)\nMenu ID                          : 7208 (0x1C28)\nFormat                           : AVC\nFormat/Info                      : Advanced Video Codec\nFormat profile                   : &lt;a class=&quot;__cf_email__&quot; href=&quot;/cdn-cgi/l/email-protection&quot; data-cfemail=&quot;5518343c3b1519617b65&quot;&gt;[email&amp;#160;protected]&lt;/a&gt;&lt;script cf-hash='f9e31' type=&quot;text/javascript&quot;&gt;\n/* &lt;![CDATA[ */!function(){try{var t=&quot;currentScript&quot;in document?document.currentScript:function(){for(var t=document.getElementsByTagName(&quot;script&quot;),e=t.length;e--;)if(t[e].getAttribute(&quot;cf-hash&quot;))return t[e]}();if(t&amp;&amp;t.previousSibling){var e,r,n,i,c=t.previousSibling,a=c.getAttribute(&quot;data-cfemail&quot;);if(a){for(e=&quot;&quot;,r=parseInt(a.substr(0,2),16),n=2;a.length-n;n+=2)i=parseInt(a.substr(n,2),16)^r,e+=String.fromCharCode(i);e=document.createTextNode(e),c.parentNode.replaceChild(e,c)}}}catch(u){}}();/* ]]&gt; */&lt;/script&gt;\nFormat settings, CABAC           : Yes\nFormat settings, ReFrames        : 4 frames\nFormat settings, GOP             : M=8, N=17\nCodec ID                         : 27\nDuration                         : 1h 42mn\nBit rate                         : 9 182 Kbps\nWidth                            : 1 920 pixels\nHeight                           : 1 080 pixels\nDisplay aspect ratio             : 16:9\nFrame rate                       : 25.000 fps\nStandard                         : PAL\nColor space                      : YUV\nChroma subsampling               : 4:2:0\nBit depth                        : 8 bits\nScan type                        : MBAFF\nBits/(Pixel*Frame)               : 0.177\nStream size                      : 6.57 GiB (89%)\nColor primaries                  : BT.709-5, BT.1361, IEC 61966-2-4, SMPTE RP177\nTransfer characteristics         : BT.709-5, BT.1361\nMatrix coefficients              : BT.709-5, BT.1361, IEC 61966-2-4 709, SMPTE RP177\n\nAudio #1                         : Italian\nID                               : 408 (0x198)\nMenu ID                          : 7208 (0x1C28)\nFormat                           : AC-3\nFormat/Info                      : Audio Coding 3\nMode extension                   : CM (complete main)\nCodec ID                         : 6\nDuration                         : 1h 42mn\nBit rate mode                    : Constant\nBit rate                         : 384 Kbps\nChannel(s)                       : 6 channels\nChannel positions                : Front: L C R, Side: L R, LFE\nSampling rate                    : 48.0 KHz\nBit depth                        : 16 bits\nCompression mode                 : Lossy\nDelay relative to video          : 3ms\nStream size                      : 281 MiB (4%)\nLanguage                         : std\nLanguage, more info              : Clean effects\n\n\nAudio #2                         : Spanish\nID                               : 409 (0x199)\nMenu ID                          : 7208 (0x1C28)\nFormat                           : AC-3\nFormat/Info                      : Audio Coding 3\nMode extension                   : CM (complete main)\nCodec ID                         : 6\nDuration                         : 1h 42mn\nBit rate mode                    : Constant\nBit rate                         : 192 Kbps\nChannel(s)                       : 2 channels\nChannel positions                : Front: L R\nSampling rate                    : 48.0 KHz\nBit depth                        : 16 bits\nCompression mode                 : Lossy\nDelay relative to video          : 6ms\nStream size                      : 141 MiB (2%)\nLanguage                         : std\nLanguage, more info              : Clean effects\n","torrent":{"xt":"urn:btih:cdd68d18bff9cd5108f2ab1b19463b46f064b50d","amp;dn":"La+Liga+G35+21.04.2012+FC+Barcelona+-+Real+Madrid+HDTV+1080i","amp;tr":["udp%3A%2F%2Ftracker.openbittorrent.com%3A80","udp%3A%2F%2Fopen.demonii.com%3A1337","udp%3A%2F%2Ftracker.coppersurfer.tk%3A6969","udp%3A%2F%2Fexodus.desync.com%3A6969"],"infoHash":"cdd68d18bff9cd5108f2ab1b19463b46f064b50d","infoHashBuffer":{"type":"Buffer","data":[205,214,141,24,191,249,205,81,8,242,171,27,25,70,59,70,240,100,181,13]},"announce":[],"urlList":[]}}